Coordinates
version=1
nRows=17
nColumns=24
inDegrees=yes

Units are S.I. units (second, meters, Newtons, ...)
Angles are in degrees.

endheader
time	pelvis_tilt	pelvis_list	pelvis_rotation	pelvis_tx	pelvis_ty	pelvis_tz	hip_flexion_r	hip_adduction_r	hip_rotation_r	knee_angle_r	ankle_angle_r	subtalar_angle_r	mtp_angle_r	hip_flexion_l	hip_adduction_l	hip_rotation_l	knee_angle_l	ankle_angle_l	subtalar_angle_l	mtp_angle_l	lumbar_extension	lumbar_bending	lumbar_rotation
      4.38000000	     -8.44715526	    -10.46329637	     -0.40864421	     -1.42349874	     -0.02561100	     -0.27798330	     15.81023732	     15.32456533	      3.09500499	    -19.92460430	      4.75934436	     -2.05753880	      9.45768049	     25.44400649	    -17.13471561	     -8.18039088	    -66.27431739	     -6.44294387	      1.58916790	      3.94695241	      8.93545997	      9.52186135	     -9.21903505
      4.38500000	     -8.28174667	    -10.25658837	     -0.44789607	     -1.41702751	     -0.02454951	     -0.27757315	     14.78162772	     15.21463985	      3.63161503	    -19.30259478	      4.79577497	     -2.45037074	      8.92358658	     25.99030301	    -16.87137903	     -8.39009592	    -65.77915145	     -5.87487488	      1.83724969	      4.27507081	      8.81028878	      9.33126752	     -8.84748680
      4.39000000	     -8.14799754	    -10.04376197	     -0.48265498	     -1.41059605	     -0.02355917	     -0.27721044	     13.80731138	     15.07649705	      4.08794647	    -18.70369983	      4.82531857	     -2.78167204	      8.39769215	     26.55350421	    -16.58732015	     -8.60242224	    -65.20753666	     -5.26933423	      2.14441892	      4.58350292	      8.71779413	      9.13670556	     -8.50601054
      4.39500000	     -8.01552635	     -9.84926195	     -0.51414281	     -1.40420504	     -0.02263184	     -0.27688784	     12.83320239	     14.94504153	      4.54832539	    -18.09662300	      4.86092673	     -3.08566476	      7.83279654	     27.10586828	    -16.30913730	     -8.80640299	    -64.56975909	     -4.64345848	      2.46701152	      4.84664282	      8.62097388	      8.96587236	     -8.19041643
      4.40000000	     -7.91089555	     -9.65487908	     -0.54751728	     -1.39783151	     -0.02176671	     -0.27656044	     11.90345675	     14.79136103	      4.85917967	    -17.49039668	      4.88538935	     -3.28081977	      7.40022442	     27.67512957	    -16.03077759	     -9.01103036	    -63.86815719	     -4.04143642	      2.88116424	      5.05054560	      8.55498880	      8.79365131	     -7.84200643
      4.40500000	     -7.82512288	     -9.46814754	     -0.57786601	     -1.39149003	     -0.02097789	     -0.27627643	     11.01015241	     14.62788278	      5.09716682	    -16.89732441	      4.88685289	     -3.42137807	      7.05583306	     28.24159104	    -15.73959362	     -9.20209307	    -63.08708281	     -3.41182413	      3.26617343	      5.20571688	      8.50551810	      8.63127790	     -7.53564729
      4.41000000	     -7.71626019	     -9.31691126	     -0.60635724	     -1.38514765	     -0.02023867	     -0.27602682	     10.07402372	     14.49046413	      5.34604960	    -16.26725355	      4.88882413	     -3.52715829	      6.73045433	     28.77250929	    -15.48382403	     -9.38587182	    -62.25473979	     -2.80695706	      3.66556793	      5.28477548	      8.43182924	      8.51696097	     -7.20971090
      4.41500000	     -7.57845322	     -9.20632395	     -0.63468012	     -1.37884288	     -0.01955395	     -0.27577623	      9.09408177	     14.38891128	      5.62455847	    -15.60888673	      4.89061953	     -3.59746729	      6.39260933	     29.26566638	    -15.26297067	     -9.54441984	    -61.37720204	     -2.20874438	      4.03163694	      5.22514035	      8.31795767	      8.44283218	     -6.87643523
      4.42000000	     -7.49890136	     -9.08612805	     -0.67240233	     -1.37253793	     -0.01896768	     -0.27554986	      8.21463642	     14.26018639	      5.73205761	    -15.00189947	      4.87202249	     -3.57076499	      6.18895069	     29.78629125	    -15.02271448	     -9.70606968	    -60.41334430	     -1.61320076	      4.38499652	      5.15979675	      8.26959959	      8.36092749	     -6.56891013
      4.42500000	     -7.37093077	     -8.99393259	     -0.70118959	     -1.36625360	     -0.01841459	     -0.27537412	      7.26515023	     14.14924279	      5.88192553	    -14.35859585	      4.86234512	     -3.50713857	      6.03600491	     30.24365110	    -14.79852516	     -9.84307453	    -59.40401172	     -1.03253712	      4.69391836	      4.93343638	      8.16272039	      8.32125090	     -6.23534106
      4.43000000	     -7.26421652	     -8.90783684	     -0.73819697	     -1.35998464	     -0.01794443	     -0.27520591	      6.35907391	     14.03716141	      5.97035780	    -13.74459674	      4.83600888	     -3.39591790	      5.96375933	     30.69682266	    -14.57412729	     -9.97403044	    -58.32911367	     -0.44548635	      4.96434200	      4.62146208	      8.07564356	      8.28596020	     -5.91386281
      4.43500000	     -7.17028380	     -8.81735342	     -0.78309589	     -1.35373752	     -0.01753261	     -0.27504795	      5.48515156	     13.91338674	      6.01382733	    -13.15542249	      4.78612147	     -3.24365709	      5.96118431	     31.13216405	    -14.34066808	    -10.10673501	    -57.18116782	      0.12897801	      5.19264330	      4.24435754	      7.99529529	      8.24439950	     -5.60146579
      4.44000000	     -7.05400587	     -8.74454164	     -0.82720537	     -1.34752076	     -0.01718601	     -0.27497295	      4.59604503	     13.79689607	      6.08015371	    -12.58091858	      4.75792168	     -3.05738105	      6.05378158	     31.52532330	    -14.10411915	    -10.20314811	    -55.98855798	      0.72386534	      5.37047297	      3.68215968	      7.88458660	      8.24098773	     -5.26232588
      4.44500000	     -7.10163858	     -8.67189735	     -0.86732584	     -1.34133238	     -0.01707699	     -0.27485546	      3.92579979	     13.68849415	      6.10278939	    -12.07833654	      4.74688660	     -2.89525157	      6.08637673	     32.08244088	    -13.85124104	    -10.23519649	    -54.71113329	      1.17797123	      5.49660337	      3.48508960	      7.95809285	      8.21818922	     -5.00607641
      4.45000000	     -6.92092142	     -8.61618377	     -0.89797219	     -1.33514003	     -0.01678708	     -0.27485692	      2.99411407	     13.57249043	      6.07090982	    -11.52466031	      4.63370682	     -2.64811165	      6.46156629	     32.36506806	    -13.62868920	    -10.34378091	    -53.46211602	      2.01097484	      5.78203492	      2.10647294	      7.76512326	      8.23739828	     -4.68772516
      4.45500000	     -6.89069761	     -8.49317723	     -1.01661063	     -1.32904851	     -0.01663680	     -0.27473985	      2.28395980	     13.40359621	      6.14517089	    -11.10657247	      4.62653763	     -2.41661613	      6.57727331	     32.73609192	    -13.35864413	    -10.48355761	    -52.03228017	      2.42096176	      5.79820111	      1.67945794	      7.71112200	      8.19334492	     -4.27103994
      4.46000000	     -6.81328975	     -8.37447308	     -1.08444166	     -1.32294455	     -0.01651563	     -0.27470275	      1.53437023	     13.22905976	      6.16186193	    -10.69556635	      4.62307801	     -2.16550786	      6.75945092	     33.04073890	    -13.06614854	    -10.57499711	    -50.56579276	      2.94506868	      5.92452700	      0.97745447	      7.61143506	      8.14360960	     -3.92824675
